<svg width="24" height="24" viewBox="0 0 24 24" fill="none" xmlns="http://www.w3.org/2000/svg">
<path d="M21.98 11.41C21.64 5.61002 16.37 1.14002 10.3 2.14002C6.12001 2.83002 2.77001 6.22002 2.12001 10.4C1.74001 12.82 2.24001 15.11 3.33001 17L2.44001 20.31C2.24001 21.06 2.93001 21.74 3.67001 21.53L6.93001 20.63C8.41001 21.5 10.14 22 11.99 22C17.63 22 22.31 17.03 21.98 11.41ZM16.88 15.72C16.6388 16.2147 16.2268 16.6054 15.72 16.82C15.42 16.95 15.09 17.01 14.74 17.01C14.23 17.01 13.68 16.89 13.11 16.64C12.5025 16.3733 11.9258 16.0413 11.39 15.65C10.81 15.23 10.27 14.76 9.75001 14.25C9.23001 13.73 8.77001 13.18 8.35001 12.61C7.94001 12.04 7.61001 11.47 7.37001 10.9C7.13001 10.33 7.01001 9.78002 7.01001 9.26002C7.01001 8.92002 7.07001 8.59002 7.19001 8.29002C7.31001 7.98002 7.50001 7.70002 7.77001 7.45002C8.09001 7.13002 8.44001 6.98002 8.81001 6.98002C8.95001 6.98002 9.09001 7.01002 9.22001 7.07002C9.35001 7.13002 9.47001 7.22002 9.56001 7.35002L10.72 8.99002C10.81 9.12002 10.88 9.23002 10.92 9.34002C10.97 9.45002 10.99 9.55002 10.99 9.65002C10.99 9.77002 10.95 9.89002 10.88 10.01C10.81 10.13 10.72 10.25 10.6 10.37L10.22 10.77C10.16 10.83 10.14 10.89 10.14 10.97C10.14 11.01 10.15 11.05 10.16 11.09C10.18 11.13 10.19 11.16 10.2 11.19C10.29 11.36 10.45 11.57 10.67 11.83C11.1382 12.3802 11.6498 12.8918 12.2 13.36C12.46 13.58 12.68 13.73 12.85 13.82C12.88 13.83 12.91 13.85 12.94 13.86C12.98 13.88 13.02 13.88 13.07 13.88C13.16 13.88 13.22 13.85 13.28 13.79L13.66 13.41C13.79 13.28 13.91 13.19 14.02 13.13C14.14 13.06 14.25 13.02 14.38 13.02C14.48 13.02 14.58 13.04 14.69 13.09C14.8 13.14 14.92 13.2 15.04 13.29L16.7 14.47C16.83 14.56 16.92 14.67 16.98 14.79C17.03 14.92 17.06 15.04 17.06 15.18C17 15.35 16.96 15.54 16.88 15.72Z" fill="white"/>
</svg>
